<svg width="25.000000" height="18.750000" viewBox="0 0 25 18.75" fill="none" xmlns="http://www.w3.org/2000/svg" xmlns:xlink="http://www.w3.org/1999/xlink">
	<desc>
			Created with Pixso.
	</desc>
	<defs/>
	<path id="Shape" d="M1.5625 3.125L23.4375 3.125C24.2969 3.125 25 2.42188 25 1.5625C25 0.703125 24.2969 0 23.4375 0L1.5625 0C0.703125 0 0 0.703125 0 1.5625C0 2.42188 0.703125 3.125 1.5625 3.125ZM1.5625 7.8125L23.4375 7.8125C24.2969 7.8125 25 8.51562 25 9.375C25 10.2344 24.2969 10.9375 23.4375 10.9375L1.5625 10.9375C0.703125 10.9375 0 10.2344 0 9.375C0 8.51562 0.703125 7.8125 1.5625 7.8125ZM23.4375 15.625L1.5625 15.625C0.703125 15.625 0 16.3281 0 17.1875C0 18.0469 0.703125 18.75 1.5625 18.75L23.4375 18.75C24.2969 18.75 25 18.0469 25 17.1875C25 16.3281 24.2969 15.625 23.4375 15.625Z" clip-rule="evenodd" fill="#000000" fill-opacity="1.000000" fill-rule="evenodd"/>
</svg>
