<svg width="30.000000" height="29.991058" viewBox="0 0 30 29.9911" fill="none" xmlns="http://www.w3.org/2000/svg" xmlns:xlink="http://www.w3.org/1999/xlink">
	<desc>
			Created with Pixso.
	</desc>
	<defs/>
	<path id="icon/image/camera_24px" d="M17.7173 1.26315C17.9726 0.812683 17.7173 0.212036 17.1917 0.151978C13.2575 -0.403625 9.23315 0.572418 6.01965 2.94498C5.73438 3.17023 5.64423 3.5907 5.83948 3.92105L10.3594 11.7595C10.6447 12.2551 11.3654 12.2551 11.6658 11.7595L17.7173 1.26315ZM20.9308 1.21808C24.5797 2.77979 27.4929 5.76801 28.9645 9.47702C29.1597 9.95755 28.7843 10.4831 28.2587 10.4831L16.1256 10.4831C15.54 10.4831 15.1796 9.85242 15.4648 9.37192L19.9847 1.54843C20.18 1.21808 20.5854 1.06793 20.9308 1.21808ZM0.178345 17.3606C-0.467346 13.2011 0.658875 8.95148 3.25665 5.66293C3.57202 5.25748 4.21771 5.33258 4.48798 5.78305L10.8849 16.8651C11.1852 17.3606 10.8098 17.9913 10.2392 17.9913L0.929138 17.9913C0.553711 17.9913 0.223389 17.721 0.178345 17.3606ZM29.0696 11.9848L19.7595 11.9848C19.1889 11.9848 18.8135 12.6154 19.1138 13.111L25.5107 24.208C25.766 24.6585 26.4117 24.7336 26.7421 24.3281C29.3549 21.0546 30.4661 16.7749 29.8204 12.6305C29.7753 12.2551 29.445 11.9848 29.0696 11.9848ZM23.9641 27.0461C20.7506 29.4186 16.7263 30.3947 12.792 29.8391C12.2814 29.764 12.0112 29.1634 12.2664 28.7129L18.333 18.2165C18.6333 17.721 19.3541 17.721 19.6394 18.2165L24.1593 26.055C24.3545 26.3853 24.2644 26.8208 23.9641 27.0461ZM1.03424 20.499C2.50586 24.208 5.41901 27.1962 9.06793 28.7579C9.41333 28.9081 9.81879 28.7579 10.014 28.4275L14.5339 20.6041C14.8192 20.1085 14.4588 19.4778 13.8882 19.4778L1.73999 19.4778C1.21448 19.4929 0.83905 20.0184 1.03424 20.499Z" clip-rule="evenodd" fill="#B82D2D" fill-opacity="1.000000" fill-rule="evenodd"/>
</svg>
