<svg width="30.000000" height="31.500000" viewBox="0 0 30 31.5" fill="none" xmlns="http://www.w3.org/2000/svg" xmlns:xlink="http://www.w3.org/1999/xlink">
	<desc>
			Created with Pixso.
	</desc>
	<defs/>
	<path id="icon/image/camera_roll_24px" d="M15 3C16.65 3 18 4.35001 18 6L27 6C28.65 6 30 7.35001 30 9L30 25.5C30 27.15 28.65 28.5 27 28.5L18 28.5C18 30.15 16.65 31.5 15 31.5L3 31.5C1.34998 31.5 0 30.15 0 28.5L0 6C0 4.35001 1.34998 3 3 3L4.5 3L4.5 1.5C4.5 0.674988 5.17499 0 6 0L12 0C12.825 0 13.5 0.674988 13.5 1.5L13.5 3L15 3ZM12 9L12 12L15 12L15 9L12 9ZM18 12L21 12L21 9L18 9L18 12ZM24 12L27 12L27 9L24 9L24 12ZM12 25.5L12 22.5L15 22.5L15 25.5L12 25.5ZM21 25.5L18 25.5L18 22.5L21 22.5L21 25.5ZM27 25.5L24 25.5L24 22.5L27 22.5L27 25.5Z" clip-rule="evenodd" fill="#000000" fill-opacity="1.000000" fill-rule="evenodd"/>
</svg>
