<svg width="30.000000" height="34.811951" viewBox="0 0 30 34.812" fill="none" xmlns="http://www.w3.org/2000/svg" xmlns:xlink="http://www.w3.org/1999/xlink">
	<desc>
			Created with Pixso.
	</desc>
	<defs/>
	<path id="Icon" d="M6.75 12.3365L3.75 12.3365C3.375 12.3365 3.07501 12.0466 3 11.6841C3.15002 5.52142 8.02502 0.301331 14.4 0.0113525C21.3 -0.278625 27 5.01392 27 11.6116L27 11.6841C27 12.1191 26.7 12.3365 26.25 12.3365L23.25 12.3365C22.8 12.3365 22.5 12.1191 22.5 11.6841L22.5 11.9016C22.5 7.98651 19.5 4.65143 15.525 4.36145C11.175 4.07141 7.5 7.479 7.5 11.6116L7.5 11.6841C7.5 12.1191 7.20001 12.3365 6.75 12.3365ZM3 15.2366L27 15.2366C28.65 15.2366 30 16.5416 30 18.1367L30 31.9119C30 33.507 28.65 34.812 27 34.812L3 34.812C1.34998 34.812 0 33.507 0 31.9119L0 18.1367C0 16.5416 1.34998 15.2366 3 15.2366ZM15 31.9116C16.35 31.9116 17.625 31.5491 18.75 30.8241C21.825 28.7941 22.65 24.734 20.55 21.689C19.575 20.239 18.075 19.2964 16.275 18.9339C14.475 18.6439 12.675 19.0064 11.175 19.9489C10.875 20.1664 10.5 20.4564 10.2 20.7465L8.25 18.8614L8.25 25.3865L15 25.3865L12.375 22.849C12.525 22.704 12.675 22.559 12.9 22.414C13.8 21.834 14.775 21.6165 15.75 21.834C16.725 21.9789 17.625 22.559 18.15 23.3565C19.275 24.9515 18.825 27.2715 17.1 28.3591C16.2 28.9391 15.225 29.1566 14.25 28.9391C13.275 28.7941 12.375 28.2141 11.85 27.4166L9.375 29.0116C10.35 30.4616 11.85 31.4041 13.65 31.7667C14.1 31.8392 14.55 31.9116 15 31.9116Z" clip-rule="evenodd" fill="#000000" fill-opacity="1.000000" fill-rule="evenodd"/>
</svg>
