<svg width="283.198456" height="79.007812" viewBox="0 0 283.198 79.0078" fill="none" xmlns="http://www.w3.org/2000/svg" xmlns:xlink="http://www.w3.org/1999/xlink">
	<desc>
			Created with Pixso.
	</desc>
	<defs/>
	<path id="Welcome" d="M24.46 78.81Q25.21 79 26.01 79Q27.87 79 29.62 78.57Q32.2 77.93 34.54 76.35Q38.48 73.73 41.78 69.28Q45.11 64.8 47.74 59.25Q50.39 53.67 52.31 47.71Q53.08 52.42 54.56 57.18Q56.06 61.92 58.31 65.9Q60.56 69.89 63.91 72.3Q64.84 72.96 65.85 73.43Q68.52 74.69 71.78 74.69Q74.98 74.69 77.61 73.48Q78.71 72.97 79.71 72.25Q83.13 69.79 85.57 65.85Q88.03 61.92 89.55 57.28Q91.1 52.61 91.8 48.16Q92.53 43.68 92.53 40.33Q92.53 31.78 91.17 25.59Q89.83 19.4 87.53 15.37Q87.91 15.46 88.19 15.46L88.87 15.46Q90.51 15.46 92.25 14.88Q92.74 14.7 92.92 14.35Q93.02 14.16 93.02 13.92Q93.02 13.53 92.82 13.31Q92.59 13.05 92.06 13.05L91.75 13.05Q90.6 13.35 89.1 13.4Q87.63 13.45 86.29 13.45Q83.33 9.45 79.44 8.03Q77.9 7.47 76.21 7.31Q75.63 7.19 75.14 7.19L74.29 7.19Q71.77 7.19 71.39 8.1Q71.32 8.26 71.32 8.46Q71.32 9.21 72.51 10.33Q73.71 11.43 75.53 12.35Q77.36 13.26 79.1 13.54Q82.45 17.76 84.11 25.12Q85.8 32.46 85.8 41.57Q85.8 43.59 85.52 47.25Q85.24 50.88 84.42 55.12Q83.6 59.34 82 63.18Q80.43 67 77.83 69.46Q77.02 70.23 76.08 70.75Q74.02 71.9 71.32 71.9Q70.27 71.9 69.3 71.64Q67.24 71.07 65.5 69.32Q62.97 66.72 61.19 62.55Q59.41 58.38 58.21 53.57Q57.02 48.77 56.34 44.27Q55.66 39.75 55.38 36.58Q56.43 32.06 57 28.12Q57.58 24.18 57.58 21.02L57.58 20.64Q57.58 17.85 56.43 16.89Q55.28 15.93 54.23 15.93Q53.65 15.93 53.18 16.16Q53.02 16.23 52.87 16.33Q50.97 17.76 50.15 21.42Q49.33 25.05 49.33 29.17Q49.33 32.83 49.8 36.16Q50.29 39.46 50.97 41.08Q49.33 47.25 47.1 53.01Q44.9 58.75 42.16 63.37Q39.44 67.96 36.28 70.71Q33.7 72.94 30.85 73.35Q30.21 73.45 29.55 73.45Q28.84 73.45 28.21 73.21Q27.07 72.79 26.22 71.57Q24.93 69.7 24.75 65.48L24.75 63.93Q24.75 59.62 25.47 54.86Q25.58 54.13 25.7 53.41Q26.37 49.39 27.35 45.42Q28.5 40.71 29.55 36.77Q30.14 34.57 31.14 30.67Q32.15 26.78 32.95 22.14Q33.77 17.48 33.77 13.14Q33.77 9.51 32.95 6.53Q32.16 3.59 30.28 1.82Q30.25 1.8 30.23 1.78Q30.16 1.71 30.09 1.65Q28.18 0 24.84 0Q20.6 0 17.1 1.61Q16.58 1.85 16.07 2.13Q14.83 2.8 13.69 3.62Q11.26 5.36 9.3 7.75Q7.65 9.75 6.32 11.94Q5.32 13.58 4.5 15.32Q2.57 19.4 1.52 23.34Q0.75 26.32 0.37 29.2Q0 32.06 0 34.75Q0 39.16 0.84 42.53Q1.71 45.89 2.97 47.34Q3.4 47.77 3.89 47.87Q4.05 47.9 4.21 47.9Q4.88 47.9 5.19 47.57Q5.46 47.28 5.46 46.75Q5.46 46.61 5.42 46.48Q5.29 46.08 4.78 45.79Q3.91 45.32 3.53 43.64Q3.16 41.95 3.16 39.56Q3.16 36 3.91 31.35Q4.68 26.69 6.16 21.89Q7.66 17.08 9.72 13Q11.78 8.92 14.39 6.39Q16.43 4.38 18.77 3.96Q19.4 3.84 20.06 3.84Q21.11 3.84 21.92 4.28Q23.31 5.05 23.97 7.12Q25.05 10.38 25.05 15.16Q25.05 19 24.56 23.39Q24.09 27.75 23.41 31.68Q22.73 35.62 22.1 38.46Q21.49 41.29 21.3 42.25Q20.06 47.9 18.98 53.95Q17.92 60 17.92 65.17L17.92 66.53Q17.92 67.19 18.04 67.87Q18.51 73.64 20.76 76.31Q22.42 78.28 24.46 78.81ZM135.56 72.98Q137.3 74.1 139.76 74.1Q142.8 74.1 144.81 72.66Q145.45 72.19 145.99 71.57Q148.22 69.02 149.37 65.48Q149.59 64.85 149.76 64.23Q150.14 66.09 150.75 67.85Q151.59 70.23 153.13 72Q153.79 72.76 154.57 73.4Q157.22 75.56 161.65 75.56Q165.55 75.56 168.29 73.78Q169.26 73.15 170.09 72.3Q173.06 69.22 174.6 64.38Q175.05 66.54 175.81 68.46Q176.83 71.04 178.67 72.71Q178.82 72.85 178.97 72.98Q179.16 73.14 179.37 73.29Q181.34 74.69 184.31 74.69Q185.76 74.69 187.05 74.25Q188.76 73.66 190.2 72.3Q192.75 69.89 194.42 66.49Q196.1 63.07 196.97 60.09Q197.28 58.94 197.6 57.37Q197.93 55.78 198.12 53.95Q199.54 54.93 201.12 55.36Q202.32 55.68 203.6 55.68Q203.77 55.68 203.93 55.68Q205.36 55.63 206.78 55.13Q206.75 56 206.72 56.88Q206.58 60.67 206.37 63.7Q206.18 66.72 205.9 68.36Q205.81 69.11 205.76 69.79Q205.71 70.47 205.71 71.03Q205.71 73.25 206.78 74.05Q207.38 74.5 208.31 74.5Q209.27 74.5 210.38 74.1Q211.48 73.73 212.53 73.14Q211.95 69.79 211.95 66.53Q211.95 61.05 213.1 55.92Q214.27 50.78 215.98 46.71Q217.71 42.63 219.35 40.52Q220.69 38.69 221.74 38.69Q221.95 38.69 222.13 38.76Q222.71 38.97 223.03 39.89Q223.48 41.08 223.57 42.67Q223.67 44.27 223.67 45.51L223.67 46.94Q223.48 50.32 223.17 53.76Q222.89 57.21 222.89 60.58Q222.89 62.88 223.13 65.03Q223.38 67.19 224.04 69.11Q224.81 71.25 225.96 71.92Q227.11 72.58 228.17 72.58Q228.94 72.58 229.45 72.39Q229.99 72.18 230.18 72.09Q229.81 70.28 229.67 68.5Q229.52 66.72 229.52 64.89Q229.52 59.71 230.58 54.91Q231.63 50.1 233.2 46.38Q234.8 42.63 236.35 40.52Q238.06 38.41 238.83 38.41Q239.07 38.41 239.27 38.5Q239.95 38.8 240.17 40.14Q240.47 41.85 240.47 43.68Q240.47 44.55 240.42 45.23Q240.38 45.89 240.38 46.38Q240.28 49.64 240.17 52.75Q240.07 55.87 239.88 60.09L239.88 61.82Q239.88 64.42 240.4 67.31Q240.94 70.16 242.5 72.24L242.51 72.25Q242.86 72.71 243.29 73.06Q244.83 74.32 247.38 74.32Q250.3 74.32 252.21 72.93Q252.94 72.4 253.52 71.67Q255.63 69.02 256.78 65.48Q257.14 64.48 257.37 63.48Q257.62 64.59 257.97 65.71Q259.11 69.35 261.41 71.96Q261.75 72.35 262.11 72.72Q262.89 73.5 263.8 74.07Q266.21 75.56 269.54 75.56Q273.29 75.56 275.82 73.96Q278.38 72.39 280.21 69.42Q281.17 67.78 282.04 65.48Q282.9 63.16 283.18 60.58Q283.25 59.76 282.89 59.48Q282.7 59.34 282.41 59.34Q282.22 59.34 281.99 59.67Q281.93 59.74 281.89 59.83Q281.73 60.09 281.64 60.39Q280.49 65.17 278.47 68.32Q277.47 69.86 276.05 70.64Q274.61 71.43 272.73 71.43Q270.7 71.43 269.19 70.54Q268.41 70.08 267.76 69.37Q265.91 67.31 265.09 63.91Q264.27 60.49 264.27 56.55L264.27 56.06Q268.11 55.19 271.65 52.89Q272.8 52.16 273.82 51.27Q275.97 49.41 277.56 46.89Q278.12 46.01 278.55 45.07Q279.93 42.05 279.93 38.41Q279.93 34.85 278.19 33.02Q277.85 32.65 277.45 32.36Q275.84 31.19 273.39 31.19Q270.3 31.19 267.81 32.4Q266.81 32.88 265.91 33.56Q262.75 35.9 260.66 39.75Q258.6 43.59 257.64 48.25Q256.68 52.89 256.68 57.51Q256.68 58.92 256.83 60.35Q256.42 60.54 256.1 61.45Q255.82 62.69 255 64.89Q254.18 67.1 252.94 68.88Q252.08 70.12 250.93 70.49Q250.43 70.66 249.87 70.66Q249.55 70.66 249.26 70.56Q248.36 70.24 247.81 68.92Q247.08 67.19 246.85 64.75Q246.61 62.32 246.61 60.09Q246.61 58.66 246.66 57.51Q246.7 56.36 246.7 55.96Q246.89 51.28 247.17 47.2Q247.48 43.1 247.57 41.76Q247.67 40.61 247.71 39.51Q247.76 38.41 247.76 37.35Q247.76 34.75 246.99 32.97Q246.8 32.53 246.5 32.2Q245.57 31.19 243.54 31.19Q241.62 31.19 239.46 32.92Q237.31 34.66 235.29 37.73Q233.84 39.84 232.6 42.11Q231.35 44.36 230.3 47.43L229.34 50.32L229.9 41.76Q229.99 40.33 230.13 38.85Q230.3 37.35 230.3 36Q230.3 33.98 229.57 32.6Q229.43 32.33 229.24 32.12Q228.41 31.19 226.55 31.19Q224.63 31.19 222.47 32.92Q220.31 34.66 218.3 37.73Q216.85 39.84 215.6 42.11Q214.36 44.36 213.31 47.43Q213.49 45.7 213.54 43.35Q213.59 40.99 213.59 39.28Q213.59 36.77 213.14 35.06Q212.91 34.09 212.3 33.67Q211.81 33.32 211.08 33.32Q210.61 33.32 210.33 33.42Q209.9 33.51 209.5 33.65Q208.61 33.97 207.82 34.57Q206.67 35.43 205.71 35.62Q206.39 37.73 206.63 41.43Q206.86 45.11 206.86 49.35Q206.86 51.27 206.82 53.19Q205.69 53.62 204.54 53.66Q204.41 53.67 204.28 53.67Q202.92 53.67 201.72 53.23Q199.94 52.58 198.52 50.97Q198.61 49.82 198.66 48.67Q198.71 47.53 198.71 46.38Q198.71 42.25 197.93 38.55Q197.16 34.85 195.19 32.5Q194.67 31.87 194.03 31.41Q192.27 30.14 189.59 30.14Q184.94 30.14 181.89 32.35Q181.55 32.6 181.22 32.88Q180.33 33.65 179.56 34.53Q177.59 36.77 176.42 39.7Q174.8 43.78 174.33 47.81Q174.21 49.35 174.03 51.42Q173.84 53.48 173.84 55.87Q173.84 58.26 174.08 60.74L174.08 60.74Q173.58 60.95 173.37 61.82Q171.03 69.87 166.68 71.18Q165.83 71.43 164.91 71.43Q162.82 71.43 161.31 70.5Q160.6 70.06 160.01 69.42Q158.18 67.4 157.41 64.05Q156.66 60.67 156.66 56.83L156.66 56.46Q156.66 55 156.8 52.38Q156.94 49.73 157.36 46.71Q157.81 43.68 158.58 40.94Q159.35 38.2 160.55 36.44Q161.36 35.24 162.46 34.85Q162.98 34.66 163.57 34.66Q164.29 34.66 164.81 34.98Q165.45 35.39 165.78 36.3Q166.36 37.92 166.36 39.84Q166.36 43.85 167.91 44.58Q168.25 44.74 168.66 44.74Q168.99 44.74 169.29 44.65Q170.23 44.4 170.96 43.35Q171.92 41.95 171.92 38.97Q171.92 37.59 171.48 36.37Q171.04 35.12 170.14 34.03Q169.26 32.96 168.14 32.42Q166.99 31.87 165.59 31.87Q161.9 31.87 159.14 33.47Q158.44 33.87 157.81 34.38Q157.64 34.51 157.47 34.65Q154.54 37.08 152.72 40.85Q150.8 44.83 149.98 49.35Q149.16 53.85 149.16 57.79L149.16 59.2Q149.16 59.89 149.25 60.57Q148.92 60.82 148.69 61.45Q148.31 62.6 147.96 63.65Q147.63 64.71 147.26 65.57Q146.58 67.19 145.26 68.97Q144.55 69.95 143.6 70.39Q142.81 70.75 141.87 70.75Q141.2 70.75 140.62 70.52Q139.62 70.13 138.89 69.04Q137.74 67.31 137.11 64.47Q136.5 61.64 136.24 58.28Q136.01 54.91 136.01 51.65L136.01 50.08Q136.01 49.26 136.12 48.49Q138.02 45.11 139.99 41.03Q141.96 36.96 143.41 32.92Q146.3 25.14 147.4 18.86Q148.5 12.58 148.5 9.21Q148.5 3.29 145.77 1.48Q144.56 0.67 142.83 0.67Q141.76 0.67 140.81 1Q139.27 1.53 138.02 2.92Q136.01 5.17 134.76 8.27Q133.52 11.34 132.94 13.73Q131.88 18.44 131.15 24.44Q130.45 30.44 130.1 36.77Q129.77 43.1 129.77 49.05Q129.77 52.33 129.87 55.26Q129.93 57.29 130.05 59.16Q129.75 60.53 129.42 61.78Q129 63.46 128.44 64.8Q127.7 66.53 126.61 68Q125.71 69.23 124.57 70.28Q123.66 71.13 122.59 71.66Q120.75 72.58 118.45 72.58Q115.84 72.58 114.04 71.37Q113.79 71.2 113.56 71.01Q113.25 70.76 112.96 70.48Q111.46 69.02 110.58 66.93Q110.35 66.39 110.16 65.84Q109.44 63.84 109.13 61.68Q108.75 58.94 108.75 56.55L108.75 56.06Q112.59 55.19 116.13 52.89Q116.99 52.34 117.77 51.7Q120.26 49.69 122.04 46.8Q122.15 46.62 122.26 46.44Q124.41 42.76 124.41 37.82L124.41 37.45Q124.41 36.58 124.22 35.75Q123.92 34.48 123.19 33.32Q122.81 32.71 122.28 32.29Q121.15 31.37 119.32 31.31L118.64 31.31Q114.99 31.31 112.17 32.83Q111.49 33.2 110.86 33.65Q110.65 33.8 110.45 33.95Q107.47 36.24 105.49 39.84Q103.38 43.68 102.38 48.3Q101.48 52.4 101.38 56.53Q101.37 57.02 101.37 57.51L101.37 59.43Q101.52 62.98 102.74 66.11Q103 66.79 103.31 67.45Q104.37 69.63 105.97 71.31Q107.06 72.45 108.4 73.35Q108.52 73.44 108.65 73.52Q111.9 75.56 116.44 75.56Q121.81 75.56 124.92 73.31Q128.04 71.03 129.96 66.04Q130.34 65.12 130.66 64.09Q130.92 65.3 131.32 66.58Q132.22 69.52 134.07 71.64Q134.18 71.77 134.3 71.9Q134.87 72.53 135.56 72.98ZM140.81 33.56Q138.7 39.28 136.22 44.36Q136.31 43.1 136.36 42.21Q136.4 41.29 136.4 40.71Q136.5 39.37 136.73 36.35Q136.97 33.32 137.39 29.34Q137.83 25.35 138.47 21.28Q139.1 17.17 139.85 13.64Q140.62 10.07 141.54 7.92Q142.42 5.83 143.44 5.76Q143.47 5.76 143.51 5.76Q143.75 5.76 143.97 5.85Q144.75 6.15 145.08 7.59Q145.52 9.42 145.52 12.18Q145.52 16.71 144.21 22.28Q142.92 27.84 140.81 33.56ZM188.67 69.23Q188.11 69.42 187.48 69.42Q186.63 69.42 185.94 69.09Q184.83 68.57 184.1 67.21Q182.96 64.99 182.51 61.73Q182.27 59.87 182.17 58.01Q182.09 56.6 182.09 55.19Q182.09 52.61 182.28 50.46Q182.49 48.3 182.58 47.25Q182.67 46.28 183.19 43.89Q183.73 41.48 184.69 38.78Q185.65 36.09 186.94 34.19Q188.08 32.52 189.45 32.3Q189.66 32.27 189.87 32.27Q190.9 32.27 191.66 32.72Q192.17 33.03 192.56 33.56Q193.45 34.75 194 36.08Q194.04 36.19 194.09 36.3Q193.13 36.77 192.63 38.27Q192.17 39.75 192.17 41.67Q192.17 44.46 193.08 47.48Q193.99 50.5 195.35 51.65Q195.26 54.04 195.05 55.78Q194.86 57.51 194.58 58.85Q194.18 60.58 193.22 63.09Q192.28 65.57 190.88 67.5Q189.93 68.82 188.67 69.23ZM111.08 53.05Q110.02 53.61 108.84 53.95L108.84 53.76Q108.84 52.71 109.08 50.41Q109.34 48.09 109.9 45.32Q110.49 42.53 111.35 39.96Q112.22 37.35 113.51 35.67Q114.47 34.41 115.68 34.09Q116.09 33.98 116.53 33.98L116.63 33.98Q117.09 33.98 117.46 34.16Q118.16 34.51 118.52 35.53Q118.79 36.23 118.94 36.96Q119.11 37.81 119.11 38.69L119.11 39.28Q119.1 39.64 119.07 40.01Q118.86 42.8 117.68 45.51Q116.59 48.02 114.88 49.97Q114.49 50.42 114.07 50.83Q112.71 52.19 111.08 53.05ZM266.94 52.88Q265.73 53.51 264.36 53.85L264.36 53.76Q264.36 52.71 264.6 50.41Q264.86 48.09 265.42 45.32Q266.01 42.53 266.92 39.96Q267.83 37.35 269.12 35.67Q270.08 34.41 271.29 34.09Q271.71 33.98 272.15 33.98Q272.72 33.98 273.15 34.23Q273.78 34.61 274.09 35.53Q274.63 37.05 274.63 38.78L274.63 39.28Q274.63 39.84 274.59 40.4Q274.4 42.99 273.34 45.51Q272.46 47.61 271.09 49.33Q270.46 50.12 269.73 50.83Q268.45 52.08 266.94 52.88Z" fill="#000000" fill-opacity="1.000000" fill-rule="evenodd"/>
</svg>
