<svg width="30.000000" height="25.000000" viewBox="0 0 30 25" fill="none" xmlns="http://www.w3.org/2000/svg" xmlns:xlink="http://www.w3.org/1999/xlink">
	<desc>
			Created with Pixso.
	</desc>
	<defs/>
	<path id="矢量 28" d="M4 25L25.99 25C28.65 25 30 23.63 30 20.93L30 7.21C30 4.5 28.65 3.15 25.99 3.15L23.01 3.15C22.02 3.15 21.7 2.94 21.14 2.29L20.1 1.11C19.46 0.39 18.81 0 17.5 0L12.4 0C11.09 0 10.44 0.39 9.8 1.11L8.78 2.29C8.22 2.93 7.9 3.15 6.9 3.15L4 3.15C1.34 3.15 0 4.5 0 7.21L0 20.93C0 23.63 1.34 25 4 25ZM4.03 22.88C2.78 22.88 2.05 22.19 2.05 20.83L2.05 7.32C2.05 5.96 2.78 5.27 4.03 5.27L7.41 5.27C8.56 5.27 9.17 5.04 9.81 4.31L10.81 3.15C11.55 2.32 11.92 2.11 13.04 2.11L16.86 2.11C18 2.11 18.37 2.32 19.09 3.15L20.1 4.31C20.73 5.04 21.35 5.27 22.5 5.27L25.96 5.27C27.22 5.27 27.94 5.96 27.94 7.32L27.94 20.83C27.94 22.19 27.22 22.88 25.96 22.88L4.03 22.88ZM15 20.8C18.86 20.8 21.97 17.61 21.97 13.63C21.97 9.64 18.86 6.46 15 6.46C11.14 6.46 8.04 9.64 8.04 13.63C8.04 17.61 11.14 20.8 15 20.8ZM24.17 10.43C25.04 10.43 25.76 9.71 25.76 8.82C25.76 7.91 25.04 7.19 24.17 7.19C23.31 7.19 22.59 7.91 22.59 8.82C22.59 9.71 23.31 10.43 24.17 10.43ZM15 18.81C12.22 18.81 9.97 16.5 9.97 13.63C9.97 10.76 12.21 8.45 15 8.45C17.78 8.45 20.04 10.76 20.04 13.63C20.04 16.5 17.78 18.81 15 18.81Z" fill="#000000" fill-opacity="1.000000" fill-rule="evenodd"/>
</svg>
