<svg width="18.000000" height="18.000000" viewBox="0 0 18 18" fill="none" xmlns="http://www.w3.org/2000/svg" xmlns:xlink="http://www.w3.org/1999/xlink">
	<desc>
			Created with Pixso.
	</desc>
	<defs/>
	<path id="矢量 13" d="M13.05 0C15.78 0 18 2.43 18 5.83C18 12.64 11.25 16.54 9 18C6.75 16.54 0 12.64 0 5.83C0 2.43 2.25 0 4.94 0C6.62 0 8.1 0.97 9 1.94C9.89 0.97 11.37 0 13.05 0ZM9.84 15.18C10.63 14.64 11.34 14.1 12.01 13.52C14.7 11.22 16.2 8.7 16.2 5.83C16.2 3.54 14.81 1.94 13.05 1.94C12.08 1.94 11.03 2.5 10.27 3.32L9 4.69L7.72 3.32C6.96 2.5 5.91 1.94 4.94 1.94C3.2 1.94 1.8 3.55 1.8 5.83C1.8 8.7 3.29 11.22 5.98 13.52C6.65 14.1 7.36 14.64 8.15 15.18C8.42 15.36 8.69 15.54 9 15.73C9.3 15.54 9.57 15.36 9.84 15.18L9.84 15.18Z" fill="#444444" fill-opacity="1.000000" fill-rule="evenodd"/>
</svg>
