<svg width="100.000000" height="110.000000" viewBox="0 0 100 110" fill="none" xmlns="http://www.w3.org/2000/svg" xmlns:xlink="http://www.w3.org/1999/xlink">
	<desc>
			Created with Pixso.
	</desc>
	<defs>
		<clipPath id="clip2_7">
			<rect id="фрейм 1" width="100.000000" height="110.000000" fill="white" fill-opacity="0"/>
		</clipPath>
	</defs>
	<rect id="фрейм 1" width="100.000000" height="110.000000" fill="#FFFFFF" fill-opacity="0"/>
	<g clip-path="url(#clip2_7)">
		<circle id="Эллипс 1" cx="50.000000" cy="50.000000" r="50.000000" fill="#B3A498" fill-opacity="1.000000"/>
		<circle id="Эллипс 1" cx="50.000000" cy="50.000000" r="49.000000" stroke="#000000" stroke-opacity="1.000000" stroke-width="2.000000"/>
		<path id="Y" d="M28.68 56.24Q29.84 56.53 31 56.49Q31.05 56.49 31.1 56.49Q34.15 56.35 37.14 54.89Q40.18 53.39 43.02 50.83Q45.87 48.29 48.41 44.92Q50.95 41.55 53.03 37.66Q53.29 37.62 53.5 37.62L54.52 37.62Q54.8 37.62 55.04 37.66Q56.27 37.7 57.21 37.96Q58.15 38.2 58.36 38.6Q58.37 38.69 58.42 38.75Q58.5 38.82 58.65 38.82Q58.72 38.82 58.77 38.8Q58.83 38.78 58.87 38.78Q58.97 38.75 59.03 38.68Q59.11 38.58 59.11 38.41Q59.11 38.38 59.04 38.24Q59.03 38.2 59.01 38.17Q58.7 37.47 57.58 37.12Q57.06 36.96 56.53 36.85Q55.87 36.72 55.19 36.66Q54.83 36.59 54.42 36.59L53.61 36.59L54.01 35.75Q55.23 33.34 55.83 31.04Q56.45 28.74 56.45 26.97Q56.45 25.39 55.83 24.34Q55.5 23.77 55 23.51Q54.6 23.3 54.08 23.3Q53.29 23.3 52.89 23.55Q52.59 23.74 52.52 23.99Q52.49 24.07 52.49 24.16Q52.49 24.28 52.53 24.39Q52.6 24.57 52.78 24.7Q51.26 26.43 49.46 28.12Q47.67 29.82 45.97 31.33Q45.11 32.09 44.32 32.77Q43.53 33.45 42.84 34.06Q42.55 34.32 42.3 34.54Q42.05 34.75 41.8 34.96Q43.17 32.84 44.22 30.61Q45.29 28.38 45.92 26.23Q46.55 24.09 46.55 22.22Q46.55 20.2 45.7 18.67Q45.61 18.52 45.52 18.37Q44.66 17.06 42.98 16.28Q41.11 15.41 38.02 15.41Q37.23 15.41 36.32 15.47Q35.43 15.52 34.41 15.67Q32.04 15.99 29.28 16.7Q26.53 17.39 23.72 18.42Q20.91 19.45 18.36 20.78Q15.81 22.11 13.79 23.68Q11.77 25.24 10.61 27.04Q9.67 28.49 9.48 30.03Q9.44 30.4 9.44 30.79Q9.44 32.04 10.02 32.91Q10.14 33.08 10.28 33.24Q10.47 33.45 10.68 33.63Q11.41 34.26 12.42 34.58Q12.66 34.66 12.9 34.72Q13.98 35 15.12 35Q15.41 35 15.69 34.98Q15.98 34.96 16.24 34.93Q16.56 34.89 17.32 34.79Q18.08 34.67 18.92 34.51Q19.76 34.35 20.31 34.17Q20.45 34.1 20.57 34.05Q20.7 33.99 20.74 33.91Q20.84 33.82 20.84 33.72Q20.84 33.6 20.7 33.48Q20.56 33.38 20.16 33.38Q19.95 33.38 19.8 33.41Q19.01 33.52 18.2 33.62Q17.39 33.7 16.6 33.7Q14.4 33.7 12.89 33.12Q11.78 32.68 11.49 31.92Q11.38 31.65 11.38 31.33Q11.38 31.11 11.4 30.89Q11.52 29.36 12.55 27.89Q13.72 26.22 15.68 24.67Q17.65 23.12 20.09 21.79Q20.59 21.52 21.09 21.26Q23.07 20.24 25.13 19.4Q27.73 18.33 30.12 17.65Q32.51 16.96 34.34 16.71Q35.07 16.6 35.72 16.57Q36.37 16.53 36.94 16.53Q39.64 16.53 41.25 17.37Q42.56 18.03 43.28 19.1Q43.45 19.35 43.58 19.63Q44.29 21.07 44.29 22.9Q44.29 25.1 43.41 27.67Q42.55 30.25 41.15 32.83Q39.75 35.39 38.09 37.62Q37.91 37.88 37.91 38.06Q37.91 38.17 37.95 38.27Q38 38.38 38.11 38.48Q38.21 38.56 38.33 38.62Q38.44 38.67 38.55 38.71Q38.74 38.74 38.95 38.76Q39.17 38.78 39.35 38.78L39.65 38.78Q39.79 38.78 39.89 38.74Q40.08 38.71 40.45 38.41Q40.83 38.1 41.23 37.7Q41.62 37.3 41.83 37.02Q42.02 36.69 42.5 36.19Q42.98 35.68 43.67 35.03Q44.36 34.35 45.18 33.58Q46.01 32.8 46.91 31.97Q48.71 30.32 50.51 28.52Q52.31 26.72 53.58 25.13Q54.04 25.79 54.04 27.3Q54.04 28.59 53.72 30.27Q53.39 31.94 52.81 33.6Q52.24 35.25 51.48 36.59Q51.48 36.61 51.47 36.62Q51.47 36.62 51.47 36.62Q51.46 36.62 51.46 36.62Q51.45 36.63 51.45 36.66Q50.9 36.69 50.38 36.78Q49.87 36.87 49.32 37.02Q47.77 37.41 45.56 38.13Q43.34 38.85 40.84 39.87Q38.34 40.9 35.87 42.21Q33.41 43.53 31.3 45.09Q29.2 46.66 27.8 48.46Q26.39 50.26 26.03 52.24Q26 52.46 25.98 52.67Q25.96 52.89 25.96 53.08Q25.96 54.15 26.47 54.87Q26.59 55.03 26.73 55.18Q26.87 55.31 27.01 55.43Q27.71 56 28.68 56.24ZM30.51 55.48Q30.38 55.48 30.24 55.48Q28.76 55.48 27.9 54.8Q27.49 54.47 27.27 54.04Q27.04 53.57 27.04 53Q27.04 51.81 28.16 50.13Q29.27 48.46 31.9 46.48Q34.53 44.54 37.52 42.86Q40.51 41.19 43.51 39.98Q46.52 38.78 49.18 38.2Q49.58 38.13 49.97 38.05Q50.37 37.95 50.73 37.88Q49.25 40.37 47.47 42.88Q45.69 45.4 43.65 47.67Q41.62 49.94 39.42 51.68Q37.23 53.43 34.91 54.46Q32.72 55.42 30.51 55.48Z" fill="#000000" fill-opacity="1.000000" fill-rule="evenodd"/>
		<path id="S" d="M55.81 82.39Q59.26 83.1 62.62 83.1Q66.21 83.1 69.38 82.39Q72.55 81.7 74.98 80.38Q77.41 79.07 78.76 77.12Q79.34 76.3 79.68 75.39Q80.14 74.14 80.14 72.73Q80.14 71.45 79.74 70.32Q79.53 69.71 79.2 69.14Q78.27 67.5 76.83 66.1Q75.97 65.27 75.07 64.47Q74.47 63.94 73.85 63.42Q72.8 62.46 71.69 61.52Q70.58 60.58 69.62 59.39Q68.77 58.33 68.26 57.23Q68.06 56.78 67.94 56.3Q67.76 55.61 67.76 54.88Q67.76 53.21 68.45 51.9Q68.83 51.18 69.41 50.57Q71.07 48.83 73.66 47.96Q75.07 47.49 76.51 47.28Q77.74 47.1 78.99 47.1Q81.39 47.1 82.44 47.75Q83.1 48.15 83.35 48.73Q83.5 49.08 83.5 49.5Q83.5 50.41 82.82 51.69Q82.15 52.96 80.14 54.15Q79.9 54.35 79.68 54.44Q79.47 54.54 79.37 54.63Q79.01 54.86 78.99 55.12Q78.99 55.14 78.99 55.16Q79.02 55.24 79.07 55.29Q79.19 55.41 79.42 55.41Q79.76 55.41 80.23 55.26Q81.78 54.81 83 53.91Q83.07 53.85 83.14 53.8Q84.41 52.82 85.15 51.57Q85.9 50.32 85.9 49.16Q85.9 48.35 85.56 47.73Q85.21 47.11 84.51 46.67Q83.11 45.81 80.04 45.81Q79.76 45.81 79.49 45.81Q77.08 45.86 74.69 46.36Q72.03 46.91 69.83 48.06Q67.66 49.21 66.35 50.96Q66.04 51.39 65.8 51.86Q65.07 53.3 65.07 55.11Q65.07 56.6 65.56 57.9Q65.74 58.36 65.98 58.79Q66.89 60.44 68.28 61.86Q69.67 63.28 71.16 64.62Q71.73 65.1 72.28 65.62Q72.85 66.15 73.37 66.68Q74.82 68.07 75.96 69.78Q76.44 70.49 76.72 71.28Q77.11 72.37 77.11 73.59Q77.11 75 76.59 76.16Q76.13 77.19 75.26 78.03Q73.42 79.84 70.35 80.74Q67.28 81.66 63.53 81.66Q60.46 81.66 57.24 80.93Q54.92 80.41 52.74 79.56Q51.9 79.22 51.07 78.84Q48.12 77.48 45.79 75.51Q43.9 73.91 42.64 71.91Q42.35 71.45 42.1 70.98Q41.72 70.27 41.45 69.53Q40.73 67.57 40.73 65.34Q40.73 63.14 41.46 61.22Q41.63 60.79 41.83 60.37Q42.12 59.78 42.5 59.24Q43.57 57.73 45.33 56.71Q47.73 55.31 51.62 55.31Q52.22 55.31 52.33 55.08Q52.35 55.03 52.35 54.97Q52.35 54.95 52.35 54.94Q52.32 54.71 51.89 54.54Q51.44 54.35 50.48 54.35Q47.5 54.35 45.21 55.38Q43.05 56.36 41.54 57.95Q41.46 58.04 41.38 58.12Q40.5 59.08 39.86 60.18Q39.36 61.03 39 61.96Q38.4 63.52 38.24 65.13Q38.18 65.71 38.18 66.3Q38.18 69.09 39.21 71.43Q39.4 71.86 39.62 72.28Q39.81 72.62 40.01 72.95Q41.38 75.2 43.56 76.96Q46.06 78.97 49.2 80.33Q52.35 81.7 55.81 82.39Z" fill="#000000" fill-opacity="1.000000" fill-rule="evenodd"/>
	</g>
</svg>
