<svg width="97.200592" height="29.223633" viewBox="0 0 97.2006 29.2236" fill="none" xmlns="http://www.w3.org/2000/svg" xmlns:xlink="http://www.w3.org/1999/xlink">
	<desc>
			Created with Pixso.
	</desc>
	<defs/>
	<path id="y.sidyakin" d="M0 0L0 17.7L1.8 17.7L1.8 0L0 0ZM2.7 0L2.7 17.7L4.49 17.7L4.49 0L2.7 0ZM5.39 0L5.39 17.7L9 17.7L9 0L5.39 0ZM9.89 0L9.89 17.7L10.8 17.7L10.8 0L9.89 0ZM12.6 0L12.6 17.7L14.39 17.7L14.39 0L12.6 0ZM16.19 0L16.19 17.7L18.9 17.7L18.9 0L16.19 0ZM19.79 0L19.79 17.7L20.7 17.7L20.7 0L19.79 0ZM21.6 0L21.6 17.7L25.19 17.7L25.19 0L21.6 0ZM26.99 0L26.99 17.7L27.9 17.7L27.9 0L26.99 0ZM29.7 0L29.7 17.7L30.6 17.7L30.6 0L29.7 0ZM34.19 0L34.19 17.7L35.99 17.7L35.99 0L34.19 0ZM36.89 0L36.89 17.7L37.8 17.7L37.8 0L36.89 0ZM39.59 0L39.59 17.7L40.5 17.7L40.5 0L39.59 0ZM44.09 0L44.09 17.7L44.99 17.7L44.99 0L44.09 0ZM46.79 0L46.79 17.7L48.6 17.7L48.6 0L46.79 0ZM49.5 0L49.5 17.7L51.3 17.7L51.3 0L49.5 0ZM52.2 0L52.2 17.7L53.99 17.7L53.99 0L52.2 0ZM54.89 0L54.89 17.7L58.5 17.7L58.5 0L54.89 0ZM59.4 0L59.4 17.7L60.3 17.7L60.3 0L59.4 0ZM62.1 0L62.1 17.7L63 17.7L63 0L62.1 0ZM63.89 0L63.89 17.7L65.69 17.7L65.69 0L63.89 0ZM69.3 0L69.3 17.7L71.1 17.7L71.1 0L69.3 0ZM74.69 0L74.69 17.7L75.59 17.7L75.59 0L74.69 0ZM77.4 0L77.4 17.7L78.3 17.7L78.3 0L77.4 0ZM79.19 0L79.19 17.7L80.1 17.7L80.1 0L79.19 0ZM83.69 0L83.69 17.7L85.49 17.7L85.49 0L83.69 0ZM86.39 0L86.39 17.7L87.3 17.7L87.3 0L86.39 0ZM89.1 0L89.1 17.7L90.9 17.7L90.9 0L89.1 0ZM94.49 0L94.49 17.7L95.39 17.7L95.39 0L94.49 0ZM96.29 0L96.29 17.7L97.2 17.7L97.2 0L96.29 0ZM44.1 27.37Q44.23 27.39 44.36 27.39Q44.71 27.39 45.01 27.27Q45.13 27.22 45.23 27.15Q45.34 27.09 45.44 27.01Q45.69 26.8 45.86 26.49L45.86 26.91Q45.89 27.09 45.99 27.27L46.77 27.27Q46.68 27.09 46.68 26.91Q46.65 26.76 46.65 26.49L46.65 20.07Q46.68 20.01 46.74 19.92L46.74 19.86L45.89 19.86L45.89 22.92Q45.79 22.71 45.63 22.54Q45.49 22.38 45.29 22.26Q44.93 22.05 44.39 22.05Q44.2 22.05 44.01 22.08Q43.68 22.15 43.37 22.32Q42.9 22.62 42.57 23.19Q42.27 23.79 42.27 24.66Q42.27 25.53 42.57 26.16Q42.87 26.76 43.35 27.06Q43.71 27.31 44.1 27.37ZM73.02 25.35L73.67 24.72L75.78 27.3L76.8 27.27L74.3 24.24L76.44 22.2L76.17 22.2Q75.84 22.2 75.56 22.14L73.02 24.51L73.02 20.07Q73.05 20.01 73.1 19.92L73.1 19.86L72.2 19.86L72.2 27.27L73.02 27.27L73.02 25.35ZM34.37 21.03Q34.5 21.09 34.65 21.09Q34.72 21.09 34.79 21.07Q34.92 21.04 35.03 20.94Q35.15 20.83 35.19 20.69Q35.22 20.61 35.22 20.52Q35.22 20.49 35.21 20.46Q35.19 20.29 35.03 20.13Q34.9 20 34.75 19.96Q34.7 19.95 34.65 19.95Q34.45 19.95 34.32 20.05Q34.27 20.08 34.23 20.13Q34.17 20.19 34.14 20.26Q34.07 20.37 34.07 20.52Q34.07 20.64 34.12 20.75Q34.16 20.85 34.23 20.94Q34.3 21 34.37 21.03ZM83.87 21.03Q84 21.09 84.15 21.09Q84.22 21.09 84.29 21.07Q84.42 21.04 84.53 20.94Q84.65 20.83 84.69 20.69Q84.72 20.61 84.72 20.52Q84.72 20.49 84.71 20.46Q84.69 20.29 84.53 20.13Q84.4 20 84.25 19.96Q84.2 19.95 84.15 19.95Q83.95 19.95 83.82 20.05Q83.77 20.08 83.73 20.13Q83.67 20.19 83.64 20.26Q83.57 20.37 83.57 20.52Q83.57 20.64 83.62 20.75Q83.66 20.85 83.73 20.94Q83.8 21 83.87 21.03ZM23.24 27.04Q23.9 27.39 24.75 27.39Q25.79 27.39 26.34 26.94Q26.61 26.71 26.75 26.42Q26.88 26.14 26.88 25.8Q26.88 25.47 26.74 25.22Q26.63 25.04 26.45 24.9Q26.06 24.57 25.11 24.27Q24.29 24.03 24 23.79Q23.74 23.63 23.68 23.41Q23.66 23.34 23.66 23.28Q23.66 23.16 23.71 23.06Q23.78 22.92 23.96 22.83Q24.29 22.65 24.78 22.65Q25.08 22.65 25.41 22.77Q25.71 22.86 25.98 23.07Q26.09 23.16 26.12 23.25Q26.13 23.25 26.13 23.26Q26.19 23.31 26.19 23.43L26.25 23.49L26.31 23.4L26.78 22.86Q26.39 22.44 25.92 22.26Q25.43 22.05 24.75 22.05Q23.85 22.05 23.37 22.41Q23.09 22.59 22.97 22.84Q22.86 23.06 22.86 23.34Q22.86 23.46 22.88 23.58Q23.09 24.43 24.78 24.93Q25.52 25.14 25.79 25.35Q25.94 25.47 26.01 25.62Q26.06 25.75 26.06 25.89Q26.06 26.08 25.99 26.23Q25.9 26.39 25.73 26.49Q25.38 26.7 24.78 26.7Q24.29 26.7 23.96 26.58Q23.68 26.45 23.44 26.26Q23.41 26.23 23.37 26.19Q23.3 26.1 23.24 26.01Q23.22 25.95 23.19 25.86L23.19 25.77L23.1 25.71L23.03 25.83L22.59 26.58Q22.89 26.86 23.24 27.04ZM65.86 22.55Q65.29 22.05 64.29 22.05Q63.57 22.05 63.02 22.35Q62.71 22.52 62.46 22.77L62.84 23.28Q63.1 23.05 63.4 22.91Q63.45 22.88 63.5 22.86Q63.53 22.85 63.55 22.84Q63.86 22.71 64.23 22.71Q64.98 22.71 65.36 23.07Q65.75 23.43 65.82 24.27Q65.31 24.21 64.68 24.21Q63.96 24.21 63.39 24.42Q62.79 24.66 62.46 25.05Q62.29 25.23 62.2 25.43Q62.1 25.69 62.1 25.98Q62.1 26.32 62.23 26.59Q62.35 26.82 62.57 27Q63.06 27.39 63.89 27.39Q64.83 27.39 65.32 26.92Q65.51 26.74 65.64 26.49L65.64 27.27L66.51 27.27L66.51 24.57Q66.51 23.19 65.94 22.62Q65.9 22.58 65.86 22.55ZM92.85 22.17L92.07 22.17L92.07 27.27L92.85 27.27L92.85 24.33Q92.85 23.97 92.98 23.67Q93.01 23.59 93.06 23.52Q93.22 23.27 93.45 23.1Q93.55 23.02 93.66 22.95Q93.91 22.79 94.17 22.76Q94.26 22.74 94.35 22.74Q94.52 22.74 94.66 22.8Q94.87 22.89 95.03 23.1Q95.28 23.43 95.28 24.21L95.28 27.27L96.05 27.27L96.05 24.18Q96.05 23.1 95.66 22.56Q95.48 22.33 95.24 22.21Q94.94 22.05 94.56 22.05Q94.36 22.05 94.17 22.09Q93.87 22.15 93.59 22.32Q93.4 22.45 93.24 22.6Q93.02 22.81 92.85 23.07L92.85 22.17ZM6.89 23.07Q7.02 22.62 7.11 22.17L6.29 22.17Q6.24 22.62 6.12 23.04Q5.99 23.43 5.76 24.21L5.09 26.25L3.5 22.17L2.67 22.17L4.76 27.3Q4.53 27.96 4.29 28.26Q4.13 28.43 3.95 28.5Q3.8 28.56 3.63 28.56Q3.39 28.56 3.17 28.5Q3.03 28.44 2.97 28.35Q2.9 28.29 2.87 28.17L2.81 28.14L2.76 28.23L2.4 28.77Q2.52 28.89 2.66 28.98Q3.04 29.22 3.57 29.22Q3.92 29.22 4.21 29.09Q4.39 29.02 4.56 28.89Q4.98 28.56 5.22 27.84L6.51 24.27Q6.75 23.52 6.89 23.07ZM34.29 26.61L32.97 26.61L32.97 27.27L36.26 27.27L36.26 26.61L35.06 26.61L35.06 22.17L33.03 22.17L33.03 22.83L34.29 22.83L34.29 26.61ZM56.39 23.07Q56.52 22.62 56.61 22.17L55.79 22.17Q55.74 22.62 55.62 23.04Q55.49 23.43 55.26 24.21L54.59 26.25L53 22.17L52.17 22.17L54.26 27.3Q54.03 27.96 53.79 28.26Q53.63 28.43 53.45 28.5Q53.3 28.56 53.13 28.56Q52.89 28.56 52.67 28.5Q52.53 28.44 52.47 28.35Q52.4 28.29 52.37 28.17L52.31 28.14L52.26 28.23L51.9 28.77Q52.02 28.89 52.16 28.98Q52.54 29.22 53.07 29.22Q53.42 29.22 53.71 29.09Q53.89 29.02 54.06 28.89Q54.48 28.56 54.72 27.84L56.01 24.27Q56.25 23.52 56.39 23.07ZM83.79 26.61L82.47 26.61L82.47 27.27L85.76 27.27L85.76 26.61L84.56 26.61L84.56 22.17L82.53 22.17L82.53 22.83L83.79 22.83L83.79 26.61ZM45.17 26.48Q44.89 26.67 44.49 26.67Q44.15 26.67 43.88 26.53Q43.61 26.39 43.4 26.1Q43.04 25.53 43.04 24.54Q43.04 23.7 43.4 23.19Q43.54 23.01 43.72 22.9Q44.01 22.71 44.43 22.71Q44.82 22.71 45.1 22.88Q45.32 23.01 45.48 23.25Q45.84 23.79 45.84 24.69Q45.84 25.59 45.51 26.13Q45.37 26.35 45.17 26.48ZM65.07 26.48Q64.63 26.79 63.99 26.79Q63.31 26.79 63.05 26.46Q62.9 26.26 62.9 25.95Q62.9 25.65 63.04 25.43Q63.16 25.24 63.39 25.11Q63.89 24.81 64.73 24.81Q65.31 24.81 65.82 24.9Q65.79 25.76 65.35 26.24Q65.33 26.26 65.31 26.28Q65.2 26.4 65.07 26.48ZM14.62 27.38Q14.65 27.39 14.69 27.39Q14.86 27.39 14.99 27.32Q15.08 27.28 15.15 27.21Q15.33 27.03 15.35 26.83Q15.36 26.79 15.36 26.76Q15.36 26.65 15.32 26.55Q15.27 26.42 15.15 26.31Q15.07 26.23 14.98 26.19Q14.85 26.13 14.69 26.13Q14.66 26.13 14.62 26.13Q14.43 26.16 14.25 26.31Q14.16 26.4 14.11 26.5Q14.06 26.62 14.06 26.76Q14.06 26.81 14.07 26.86Q14.1 27.04 14.25 27.21Q14.42 27.36 14.62 27.38Z" fill="#FFFFFF" fill-opacity="1.000000" fill-rule="evenodd"/>
</svg>
