<svg width="134.423645" height="42.767578" viewBox="0 0 134.424 42.7676" fill="none" xmlns="http://www.w3.org/2000/svg" xmlns:xlink="http://www.w3.org/1999/xlink">
	<desc>
			Created with Pixso.
	</desc>
	<defs/>
	<path id="Y.Sidyakin" d="M13.36 42.08Q14.39 42.76 16.08 42.76Q18.24 42.76 19.82 41.8Q19.95 41.72 20.08 41.63Q20.29 41.48 20.5 41.33Q21.88 40.25 22.83 38.62Q23.93 36.75 24.56 34.48Q25.19 32.22 25.46 29.93Q25.73 27.65 25.73 25.74Q25.73 22.89 25.52 20.69Q25.83 20.48 26.39 20.27Q26.95 20.05 27.46 20.02Q27.56 20.02 27.66 19.99Q27.73 19.98 27.79 19.95Q27.92 19.89 27.95 19.8Q27.96 19.76 27.96 19.73Q27.94 19.54 27.84 19.45Q27.78 19.39 27.69 19.37Q27.46 19.3 27.17 19.3Q26.88 19.3 26.45 19.37Q26.02 19.44 25.52 19.73L25.37 19.8Q25.16 18.07 24.9 16.25Q24.65 14.44 24.37 12.56Q24.11 10.98 23.95 10.07Q23.79 9.14 23.68 8.89Q23.65 8.82 23.58 8.05Q23.53 7.27 23.46 6.3Q23.39 5.32 23.28 4.59Q23.17 3.85 23.07 3.85L23.03 3.85L22.9 3.68Q22.79 3.51 22.66 3.49Q22.65 3.49 22.64 3.49Q22.39 3.5 22.19 3.61Q21.81 3.81 21.61 4.35Q21.3 5.18 21.16 6.64Q21.02 8.1 20.8 9.97Q20.58 11.84 20.01 13.93Q19.47 15.91 18.7 17.8Q18.55 18.18 18.38 18.56Q17.41 20.81 16.25 22.59Q15.08 24.37 13.78 25.41Q12.5 26.45 11.21 26.46Q11.2 26.46 11.18 26.46L11.01 26.46Q10.49 26.42 10.13 26.16Q9.79 25.92 9.6 25.47Q9.21 24.55 9.21 23.22Q9.21 21.96 9.43 20.52Q9.67 19.08 10.01 17.7Q10.36 16.31 10.66 15.26Q10.97 14.22 11.08 13.79Q11.3 12.96 11.68 11.5Q12.05 10.04 12.35 8.3Q12.66 6.55 12.66 4.93Q12.66 3.56 12.35 2.45Q12.06 1.34 11.35 0.68Q11.34 0.67 11.33 0.66Q11.31 0.64 11.28 0.62Q10.57 0 9.31 0Q7.72 0 6.41 0.6Q6.21 0.69 6.02 0.79Q5.56 1.05 5.13 1.35Q4.22 2.01 3.48 2.9Q2.87 3.65 2.37 4.47Q1.99 5.09 1.68 5.74Q0.96 7.27 0.57 8.75Q0.28 9.87 0.14 10.95Q0 12.02 0 13.03Q0 14.68 0.31 15.95Q0.64 17.2 1.11 17.75Q1.27 17.91 1.46 17.95Q1.52 17.96 1.58 17.96Q1.83 17.96 1.94 17.83Q2.04 17.73 2.04 17.53Q2.04 17.48 2.03 17.43Q1.98 17.28 1.79 17.17Q1.46 16.99 1.32 16.36Q1.18 15.73 1.18 14.83Q1.18 13.5 1.46 11.75Q1.75 10.01 2.31 8.2Q2.87 6.4 3.64 4.87Q4.42 3.34 5.39 2.39Q6.16 1.64 7.04 1.48Q7.27 1.44 7.52 1.44Q7.91 1.44 8.22 1.6Q8.74 1.89 8.99 2.67Q9.39 3.89 9.39 5.68Q9.39 7.12 9.21 8.77Q9.03 10.4 8.76 11.88Q8.49 13.35 8.27 14.42Q8.05 15.48 7.98 15.84Q7.83 16.52 7.54 17.82Q7.26 19.11 7.03 20.62Q6.8 22.13 6.8 23.61Q6.8 25.48 7.4 26.89Q7.64 27.44 8.05 27.79Q8.69 28.34 9.75 28.4L10.03 28.4Q10.48 28.4 10.92 28.33Q12.13 28.13 13.26 27.38Q14.79 26.35 16.1 24.62Q17.41 22.89 18.5 20.7Q19.58 18.5 20.44 16.16Q20.83 15.01 21.19 13.97Q21.55 12.92 21.84 11.98Q21.95 12.92 22.09 14.26Q22.24 15.59 22.4 16.98Q22.57 18.36 22.67 19.51Q22.78 20.66 22.85 21.2Q20.66 22.64 18.72 24.5Q16.8 26.35 14.89 29.12Q13.6 30.99 12.54 33.24Q11.67 35.09 11.51 36.99Q11.47 37.41 11.47 37.83Q11.47 39.17 11.9 40.28Q12.09 40.76 12.38 41.15Q12.77 41.69 13.36 42.08ZM72.28 27.53Q72.79 27.82 73.46 27.82Q74.01 27.82 74.48 27.63Q75 27.42 75.42 26.98Q75.52 26.88 75.6 26.78Q76.29 26 76.69 24.96Q76.73 24.86 76.77 24.75Q76.89 25.58 77.08 26.26Q77.32 27.07 77.68 27.39Q78.03 27.71 78.41 27.75Q78.45 27.75 78.5 27.75Q78.63 27.75 78.76 27.73Q79.2 27.65 79.59 27.3Q80.1 26.85 80.49 26.25Q80.89 25.63 81.06 25.24Q81.78 23.61 82.3 22.06Q82.83 20.52 83.12 18.94Q83.22 20.19 83.28 21.55Q83.33 22.89 83.36 23.95Q83.4 25.02 83.4 25.48Q82.36 26.13 80.92 27.2Q79.48 28.26 78.13 29.62Q76.78 30.99 75.91 32.61Q75.37 33.68 74.99 34.8Q74.95 34.93 74.91 35.05Q74.51 36.32 74.51 37.44Q74.51 38.56 75 39.4Q75.16 39.66 75.36 39.9Q75.37 39.91 75.38 39.92Q76.23 40.89 78.18 40.89Q78.67 40.89 79.13 40.8Q80.61 40.51 81.91 39.29Q83.62 37.69 84.64 34.41Q85.67 31.13 85.67 26.13L85.67 25.7Q85.67 25.31 86.28 24.79Q86.9 24.26 87.64 23.85Q88.1 23.59 88.45 23.48Q88.52 24.19 88.65 24.84Q88.94 26.17 89.52 26.98Q89.9 27.51 90.4 27.69Q90.67 27.79 90.97 27.79L91 27.79Q91.12 27.79 91.24 27.77Q92.04 27.66 92.72 26.8Q93.52 25.81 94.18 24.26Q94.72 23.01 95.11 21.7Q95.2 21.4 95.28 21.1Q95.28 21.96 95.42 23.09Q95.44 23.21 95.46 23.33Q95.61 24.34 95.95 25.33Q96.33 26.42 97.01 27.13Q97.2 27.32 97.43 27.46Q98.01 27.82 98.81 27.82Q99.24 27.82 99.62 27.69Q100.2 27.48 100.67 26.96Q101.44 26.1 101.87 24.92Q101.87 24.93 101.87 24.95Q101.83 25.99 101.8 26.75Q101.76 27.5 101.69 27.79Q102 27.79 102.27 27.69Q102.83 27.49 103.24 26.89Q103.53 26.49 103.64 25.6Q103.71 25.52 103.71 25.45Q103.89 24.52 104.37 22.73Q104.86 20.95 105.54 19.08L105.58 19.08Q105.58 19.11 105.56 19.13Q105.54 19.15 105.54 19.23Q105.61 19.76 105.81 20.74Q106.01 21.7 106.33 22.82Q106.66 23.94 107.05 24.88Q107.6 26.17 108.39 27Q108.51 27.12 108.65 27.23Q109.4 27.82 110.62 27.82L110.83 27.82Q111.25 27.8 111.63 27.66Q111.93 27.55 112.2 27.36Q112.81 26.92 113.25 26.24Q113.75 25.45 114.06 24.5Q114.13 24.28 114.18 24.08Q114.29 24.48 114.42 24.89Q114.83 26.2 115.64 27.11Q115.96 27.46 116.34 27.67Q116.95 28.01 117.75 28.01Q118.79 28.01 119.55 27.54Q119.83 27.37 120.08 27.13Q120.99 26.24 121.5 24.95Q121.54 24.86 121.57 24.78Q121.53 25.28 121.49 25.63Q121.46 25.81 121.46 25.98L121.46 26.27Q121.46 27.18 121.8 27.56Q121.98 27.76 122.2 27.85Q122.41 27.94 122.64 27.94Q122.97 27.94 123.36 27.75Q123.76 27.58 124.01 27.39Q123.79 26.13 123.79 24.91Q123.79 22.89 124.22 20.97Q124.66 19.04 125.3 17.51Q125.96 15.98 126.57 15.19Q127.18 14.37 127.61 14.37Q127.81 14.37 127.95 14.46Q128.1 14.57 128.17 14.81Q128.29 15.26 128.29 15.76Q128.29 17.31 128.06 18.99Q128.02 19.25 127.99 19.51Q127.83 20.92 127.83 22.35Q127.83 23.04 127.88 23.73Q127.93 24.4 128.08 25.09Q128.33 26.31 128.88 27.09Q129.13 27.43 129.45 27.62Q129.88 27.87 130.46 27.87Q131.52 27.87 132.25 27.37Q132.56 27.17 132.81 26.87Q132.89 26.78 132.97 26.68Q133.7 25.75 134.09 24.55Q134.23 24.16 134.32 23.76Q134.42 23.37 134.42 23.11L134.42 22.97Q134.42 22.68 134.3 22.62Q134.27 22.61 134.23 22.61Q134.2 22.61 134.16 22.62Q133.96 22.67 133.84 23.04Q133.73 23.47 133.58 23.87Q133.44 24.26 133.3 24.59Q133.12 25.05 132.81 25.53Q132.5 25.99 132.11 26.27Q131.75 26.49 131.47 26.49Q131.3 26.49 131.16 26.44Q130.9 26.33 130.72 26.01Q130.46 25.52 130.34 24.82Q130.24 24.12 130.2 23.42Q130.17 22.71 130.17 22.32Q130.17 20.88 130.27 19.45Q130.38 18.03 130.49 16.98Q130.6 15.91 130.6 15.66Q130.63 15.3 130.67 14.88Q130.71 14.47 130.71 14Q130.71 13.13 130.38 12.41Q130.3 12.23 130.17 12.1Q129.79 11.69 128.98 11.69Q128.43 11.69 127.99 11.92Q127.61 12.12 127.32 12.51Q126.71 13.32 126.18 14.15Q125.63 14.94 125.16 15.79Q124.7 16.63 124.3 17.78Q124.37 17.13 124.39 16.25Q124.41 15.37 124.41 14.73Q124.41 13.79 124.24 13.14Q124.15 12.78 123.93 12.62Q123.74 12.49 123.47 12.49Q123.29 12.49 123.19 12.53Q122.68 12.63 122.21 12.96Q121.75 13.28 121.46 13.35Q121.68 14.15 121.76 15.5Q121.85 16.84 121.85 18.36Q121.85 19.8 121.8 21.24Q121.79 21.46 121.78 21.67Q121.74 21.77 121.71 21.92Q121.42 23.11 121.04 24.26Q120.66 25.41 119.94 26.1Q119.59 26.45 119.17 26.58Q118.91 26.67 118.61 26.67Q118.27 26.67 117.98 26.54Q117.48 26.32 117.15 25.72Q116.63 24.76 116.45 23.37Q116.27 21.96 116.27 20.59Q116.27 17.89 116.78 15.64Q117.28 13.39 117.64 12.13Q117.17 12.02 116.71 12.02Q115.88 12.02 115.39 12.4Q114.9 12.77 114.68 13.21Q114.37 13.82 114.06 15.55Q113.75 17.27 113.68 19.33Q113.68 20.05 113.7 20.79Q113.72 21.53 113.82 22.35Q113.85 22.52 113.88 22.69Q113.44 24.13 113 25.09Q112.81 25.45 112.49 25.91Q112.3 26.17 112.05 26.28Q111.87 26.35 111.66 26.35Q111.62 26.35 111.58 26.35Q111.05 26.31 110.56 25.74Q110.04 25.12 109.56 24.16Q109.08 23.18 108.72 22.1Q108.36 21.02 108.1 20.09Q107.85 19.15 107.78 18.65Q108.79 18.14 109.84 17.2Q110.9 16.24 111.66 15.1Q112.42 13.97 112.42 12.99Q112.42 12.7 112.36 12.41Q112.27 11.97 112.06 11.55Q112 11.44 111.92 11.34Q111.51 10.87 110.54 10.87Q110.21 10.87 109.9 10.94Q108.95 11.15 108.14 11.98Q107.05 13.1 106.23 14.85Q105.4 16.6 104.8 18.5Q104.22 20.41 103.81 22.03Q103.78 20.88 103.74 19.74Q103.71 18.61 103.64 17.63Q104.25 16.45 104.84 15.09Q105.44 13.71 105.9 12.38Q106.12 11.77 106.54 10.35Q106.95 8.92 107.29 7.2Q107.63 5.47 107.63 3.92Q107.63 2.41 107.12 1.35Q106.94 0.96 106.64 0.71Q106.12 0.29 105.25 0.29Q104.61 0.29 104.11 0.54Q103.67 0.76 103.33 1.17Q102.59 2.05 102.19 3.49Q101.8 4.93 101.65 6.59Q101.51 8.24 101.51 9.79Q101.51 11.05 101.56 12.12Q101.62 13.17 101.66 13.79Q101.8 15.59 101.87 17.53Q101.94 19.47 101.94 21.6L101.94 21.99Q101.94 22.21 101.94 22.43Q101.92 22.47 101.91 22.53Q101.44 24.19 100.9 25.24Q100.5 26.03 100.16 26.32Q99.82 26.6 99.53 26.6L99.49 26.6Q99.38 26.6 99.28 26.57Q98.92 26.47 98.66 25.99Q98.34 25.38 98.15 24.48Q97.98 23.58 97.91 22.64Q97.84 21.7 97.84 21.02L97.84 20.88Q97.84 19.26 98.03 17.56Q98.23 15.84 98.52 14.4Q98.81 12.96 99.02 12.13Q98.73 12.05 98.46 12.02Q98.2 11.98 97.98 11.98Q97.37 11.98 96.94 12.17Q96.51 12.34 96.26 12.63Q96.13 12.35 95.93 12.13Q95.73 11.91 95.44 11.75Q95.33 11.7 95.22 11.65Q94.75 11.45 94.2 11.45Q92.87 11.45 91.89 12.04Q91.58 12.23 91.31 12.48Q90.17 13.5 89.52 15.09Q88.87 16.67 88.62 18.42Q88.37 20.16 88.37 21.6L88.37 21.96Q88.37 22.37 88.39 22.77Q88.05 22.85 87.56 23.09Q86.78 23.47 85.75 24.08L85.75 23.68Q85.75 22.89 85.7 21.48Q85.67 20.05 85.67 18.5Q85.67 17.13 85.74 15.86Q85.82 14.58 86.01 13.64Q86.21 12.7 86.57 12.38Q86.71 12.24 86.71 12.17Q86.71 12.14 86.7 12.11Q86.64 11.95 86.18 11.95L85.75 11.95Q85.24 11.95 84.53 12.13Q84.48 12.15 84.42 12.17Q83.8 12.38 83.36 13.13Q83.33 13.2 83.29 13.27Q82.97 13.91 82.93 14.69Q82.9 15.55 82.86 16.34Q82.79 17.6 82.52 19.08Q82.25 20.55 81.77 21.94Q81.28 23.32 80.56 24.33Q80.24 24.76 80.02 24.76Q79.99 24.76 79.96 24.76Q79.72 24.71 79.55 24.26Q79.37 23.76 79.26 23.15Q79.19 22.64 79.15 21.98Q79.12 21.31 79.12 20.59Q79.12 19.15 79.26 17.56Q79.41 15.98 79.66 14.6Q79.91 13.21 80.27 12.34Q80.31 12.31 80.31 12.24Q80.31 12.17 80.27 12.14Q80.25 12.12 80.22 12.12Q80.13 12.1 80.02 12.05Q79.88 12.02 79.71 12.02L79.37 12.02Q78.48 12.02 77.92 12.45Q77.48 12.79 77.25 13.39Q76.96 14.15 76.81 15.21Q76.67 16.27 76.61 17.32Q76.56 18.36 76.53 19.11Q76.53 19.33 76.51 19.64Q76.49 19.94 76.49 20.34Q76.49 21.2 76.54 22.28Q76.56 22.56 76.58 22.83Q76.49 23.11 76.36 23.52Q76.17 24.19 75.85 24.91Q75.52 25.63 75.12 26.12Q74.82 26.49 74.45 26.57Q74.34 26.6 74.22 26.6Q74.11 26.6 74 26.57Q73.65 26.46 73.41 25.98Q73.1 25.34 72.92 24.36Q72.74 23.37 72.69 22.2Q72.64 21.02 72.64 19.94Q72.64 18.79 72.67 17.92Q72.71 17.06 72.74 16.81Q73.5 15.37 74.31 13.37Q75.12 11.38 75.73 9.25Q76.35 7.12 76.57 5.37Q76.64 4.97 76.67 4.49Q76.71 3.99 76.71 3.53Q76.71 2.69 76.5 1.96Q76.36 1.4 76.02 0.98Q75.92 0.85 75.8 0.74Q75.3 0.25 74.3 0.25Q73.87 0.25 73.51 0.41Q73.2 0.54 72.94 0.79Q72.38 1.33 72 2.14Q71.82 2.53 71.68 2.93Q71.53 3.37 71.42 3.82Q71.23 4.68 71.13 5.37Q70.99 6.37 70.87 8.13Q70.77 9.9 70.7 11.81Q70.19 11.45 69.36 11.45Q68.17 11.45 67.25 11.94Q67.06 12.04 66.88 12.17Q66.76 12.25 66.65 12.33Q65.76 13.02 65.13 14.06Q64.43 15.23 64.03 16.63Q63.64 18.03 63.45 19.44Q63.28 20.84 63.28 21.96Q63.28 22.35 63.29 22.73Q62.85 24.26 62.34 25.24Q61.94 26.03 61.6 26.32Q61.26 26.6 60.98 26.6L60.94 26.6Q60.8 26.6 60.67 26.55Q60.35 26.44 60.13 26.03Q59.83 25.45 59.68 24.53Q59.54 23.61 59.5 22.56Q59.47 21.49 59.47 20.55Q59.47 17.85 59.97 15.62Q60.47 13.39 60.83 12.13Q60.36 12.02 59.9 12.02Q59.07 12.02 58.58 12.4Q58.1 12.77 57.88 13.21Q57.66 13.68 57.43 14.78Q57.2 15.88 57.03 17.34Q56.87 18.79 56.87 20.34Q56.87 22.21 57.17 23.93Q57.48 25.63 58.22 26.73Q58.6 27.29 59.12 27.56Q59.62 27.82 60.26 27.82Q60.69 27.82 61.07 27.69Q61.65 27.48 62.11 26.96Q62.89 26.1 63.32 24.91Q63.4 24.69 63.47 24.47Q63.5 24.66 63.53 24.84Q63.79 26.17 64.32 26.98Q64.66 27.48 65.12 27.67Q65.4 27.79 65.73 27.79Q65.79 27.79 65.86 27.78Q66.76 27.71 67.57 26.67Q68.46 25.55 69.18 23.87Q69.9 22.17 70.37 20.45Q70.37 22.28 70.6 23.98Q70.84 25.67 71.5 26.75Q71.82 27.26 72.28 27.53ZM73.96 11.9Q73.36 13.75 72.67 15.23L72.67 15.01Q72.67 14.51 72.76 13.27Q72.86 12.02 73 10.45Q73.15 8.89 73.31 7.36Q73.46 5.83 73.62 4.7Q73.79 3.56 73.9 3.24Q74.11 2.62 74.32 2.39Q74.54 2.16 74.69 2.16Q74.75 2.16 74.8 2.17Q75.01 2.23 75.15 2.54Q75.34 2.91 75.37 3.41Q75.41 3.67 75.41 3.92L75.41 4.46Q75.41 6.16 74.99 8.1Q74.58 10.04 73.96 11.9ZM105.03 12.53Q104.39 14.51 103.6 16.31Q103.57 16.09 103.57 15.89L103.57 15.55Q103.57 15.08 103.6 13.94Q103.64 12.81 103.71 11.34Q103.78 9.87 103.9 8.32Q104.03 6.76 104.25 5.44Q104.5 3.92 104.84 3.06Q105.17 2.24 105.57 2.19Q105.59 2.19 105.61 2.19Q105.7 2.19 105.77 2.22Q106.08 2.33 106.24 2.88Q106.44 3.56 106.48 4.61L106.48 5Q106.48 6.66 106.08 8.6Q105.68 10.54 105.03 12.53ZM41.3 29.05Q41.86 29.09 42.47 29.09Q44.3 29.09 46.41 28.69Q48.2 28.35 49.88 27.7Q50.17 27.59 50.46 27.47Q52.41 26.63 53.81 25.29Q54.48 24.64 54.94 23.87Q55.44 23.03 55.69 22.03Q55.79 21.63 55.83 21.24Q55.86 20.84 55.86 20.48Q55.86 19.11 55.24 18.14Q55.08 17.88 54.87 17.65Q53.88 16.55 52.29 15.88Q50.71 15.19 48.89 14.71Q47.08 14.22 45.4 13.75Q43.73 13.28 42.58 12.56Q41.68 12.02 41.28 11.38Q40.95 10.83 40.89 10.25Q40.89 10.15 40.89 10.04Q40.89 10.01 40.89 9.99Q40.91 8.86 41.82 7.76Q42.76 6.62 44.27 5.69Q45.78 4.75 47.57 4.18Q49.35 3.6 51.07 3.6L51.19 3.6Q53.2 3.6 54.04 4.23Q54.7 4.72 54.85 5.32Q54.89 5.5 54.89 5.68Q54.89 6.66 54.01 7.72Q53.13 8.78 51.71 9.5Q50.94 9.89 50.12 10.07Q49.43 10.23 48.7 10.23Q48.6 10.23 48.56 10.27Q48.51 10.32 48.51 10.4Q48.51 10.54 48.67 10.74Q48.79 10.88 48.94 10.92Q49 10.94 49.06 10.94L49.2 10.94Q51.55 10.94 53.23 10.24Q54.93 9.54 55.86 8.48Q56.78 7.44 56.8 6.38Q56.8 6.36 56.8 6.33Q56.8 6.12 56.76 5.91Q56.55 4.8 55.23 3.91Q53.67 2.84 50.25 2.84L50.11 2.84Q48.34 2.84 46.47 3.27Q45.15 3.58 43.91 4.09Q43.4 4.31 42.9 4.56Q41.61 5.2 40.58 6.12Q40.25 6.41 39.95 6.73Q39.24 7.51 38.79 8.42Q38.74 8.52 38.69 8.63Q38.28 9.52 38.23 10.43Q38.22 10.56 38.22 10.69Q38.22 11.12 38.31 11.53Q38.39 11.94 38.57 12.34Q38.91 13.13 39.66 13.75Q40.71 14.61 42.07 15.16Q43.44 15.69 44.96 16.12Q46.47 16.55 47.96 17.01Q49.46 17.46 50.75 18.11Q51.86 18.68 52.35 19.44Q52.66 19.92 52.78 20.45Q52.84 20.74 52.84 21.05Q52.84 22.25 52.01 23.51Q51.19 24.76 49.76 25.83Q48.34 26.89 46.54 27.54Q46.15 27.68 45.76 27.79Q44.31 28.18 42.76 28.18Q42.36 28.18 41.93 28.13Q41.5 28.08 41.11 28.04Q39.01 27.72 38.09 26.92Q37.41 26.33 37.23 25.62Q37.18 25.38 37.18 25.12Q37.18 24.23 37.86 23.28Q38.55 22.32 39.73 21.53Q40.92 20.74 42.47 20.24Q44.01 19.73 45.75 19.73Q46.14 19.73 46.54 19.78Q46.93 19.83 47.29 19.83L47.51 19.83Q47.83 19.83 47.91 19.69Q47.94 19.64 47.94 19.58Q47.94 19.54 47.93 19.5Q47.89 19.38 47.72 19.3Q47.51 19.18 46.76 19.09Q46 19.01 45.42 19.01Q43.26 19.01 41.35 19.57Q39.44 20.12 37.99 21.04Q36.54 21.96 35.68 23.06Q34.84 24.16 34.84 25.24Q34.84 25.43 34.87 25.62Q35.04 26.62 36.1 27.47Q37.36 28.47 40.24 28.94Q40.75 29.02 41.3 29.05ZM60.02 9.36Q60.25 9.43 60.5 9.43Q60.88 9.43 61.2 9.29Q61.49 9.16 61.72 8.92Q61.97 8.68 62.1 8.39Q62.23 8.07 62.23 7.7Q62.23 7.33 62.1 7.02Q61.97 6.72 61.72 6.48Q61.48 6.23 61.19 6.11Q60.87 5.97 60.5 5.97Q60.26 5.97 60.04 6.04Q59.64 6.15 59.3 6.48Q59.04 6.73 58.91 7.04Q58.78 7.34 58.78 7.7Q58.78 8.06 58.91 8.37Q59.04 8.67 59.3 8.92Q59.63 9.24 60.02 9.36ZM116.83 9.36Q117.06 9.43 117.31 9.43Q117.69 9.43 118.01 9.29Q118.3 9.16 118.53 8.92Q118.78 8.68 118.91 8.39Q119.04 8.07 119.04 7.7Q119.04 7.33 118.91 7.02Q118.78 6.72 118.53 6.48Q118.29 6.23 117.99 6.11Q117.68 5.97 117.31 5.97Q117.07 5.97 116.85 6.04Q116.45 6.15 116.11 6.48Q115.85 6.73 115.72 7.04Q115.59 7.34 115.59 7.7Q115.59 8.06 115.72 8.37Q115.85 8.67 116.11 8.92Q116.44 9.24 116.83 9.36ZM67.06 24.84Q67.02 24.84 66.99 24.84Q66.94 24.84 66.9 24.84Q66.59 24.79 66.34 24.38Q66.05 23.9 65.98 22.82Q65.94 22.57 65.94 22.28L65.94 21.74Q65.94 20.12 66.25 18.29Q66.56 16.45 67.21 15.08Q67.52 14.42 67.97 13.87Q68.23 13.55 68.53 13.27Q69.36 12.49 70.16 12.49Q70.44 12.49 70.66 12.6L70.62 13.61Q70.61 14.3 70.56 15Q70.51 15.77 70.42 16.54Q70.26 18 69.87 19.44Q69.58 20.55 69.13 21.82Q68.68 23.08 68.14 23.96Q67.63 24.79 67.06 24.84ZM92.32 24.84Q92.27 24.84 92.22 24.84Q92.21 24.84 92.2 24.84Q91.85 24.83 91.52 24.38Q91.18 23.9 91.11 22.82Q91.07 22.46 91.05 22.06Q91.04 21.67 91.04 21.27Q91.04 19.73 91.3 18.04Q91.57 16.34 92.15 15.08Q92.27 14.83 92.41 14.59Q92.82 13.88 93.44 13.28Q94.28 12.49 95.07 12.49Q95.2 12.49 95.33 12.52Q95.71 12.61 96.04 12.96Q95.83 13.69 95.69 14.43Q95.5 15.37 95.42 16.33Q95.37 17 95.26 17.67Q95.11 18.69 94.85 19.69Q94.56 20.81 94.16 21.99Q93.77 23.18 93.29 24.02Q92.84 24.77 92.32 24.84ZM107.32 18.17Q106.57 18.58 105.68 18.72Q105.9 18.21 106.3 17.35Q106.69 16.48 107.23 15.59Q107.78 14.68 108.4 14.06Q109.01 13.44 109.65 13.43Q109.66 13.42 109.68 13.42Q109.96 13.42 110.11 13.56Q110.3 13.73 110.3 14.11Q110.3 14.8 109.7 15.81Q109.11 16.81 108.08 17.66Q107.72 17.96 107.32 18.17ZM19.06 41.05Q17.88 41.8 16.23 41.8Q15.43 41.8 14.87 41.43Q14.67 41.3 14.5 41.13Q14.48 41.11 14.47 41.1Q13.84 40.44 13.56 39.45Q13.28 38.45 13.28 37.37Q13.28 35.35 14.19 33.06Q15.11 30.77 16.61 28.61Q18.1 26.46 19.81 24.69Q21.52 22.93 23.07 21.96Q23.17 22.89 23.26 24.31Q23.36 25.74 23.36 27.39Q23.36 29.26 23.17 31.26Q23 33.26 22.54 35.13Q22.09 37.01 21.3 38.52Q20.51 40.03 19.27 40.91Q19.17 40.98 19.06 41.05ZM30.77 27.69Q31.08 27.82 31.45 27.82Q31.84 27.82 32.16 27.68Q32.44 27.56 32.68 27.32Q32.92 27.08 33.05 26.78Q33.19 26.47 33.19 26.1Q33.19 25.73 33.05 25.42Q32.92 25.12 32.68 24.88Q32.43 24.63 32.14 24.5Q31.82 24.37 31.45 24.37Q31.09 24.37 30.79 24.49Q30.48 24.62 30.22 24.88Q29.99 25.11 29.86 25.4Q29.72 25.72 29.72 26.1Q29.72 26.48 29.86 26.8Q29.99 27.08 30.22 27.32Q30.47 27.56 30.77 27.69ZM77.9 40.13L77.78 40.13Q77.45 40.13 77.18 40Q76.81 39.82 76.56 39.4Q76.13 38.66 76.13 37.47Q76.13 36.65 76.36 35.65Q76.6 34.67 77.06 33.62Q77.93 31.71 79.21 30.22Q80.49 28.73 81.68 27.72Q82.86 26.71 83.44 26.39Q83.4 27 83.33 28.23Q83.26 29.48 83.06 31.05Q82.86 32.61 82.49 34.19Q82.11 35.78 81.51 37.13Q80.92 38.48 80.03 39.31Q79.66 39.66 79.22 39.86Q78.62 40.13 77.9 40.13Z" fill="#000000" fill-opacity="1.000000" fill-rule="evenodd"/>
</svg>
