<svg width="30.000000" height="30.000000" viewBox="0 0 30 30" fill="none" xmlns="http://www.w3.org/2000/svg" xmlns:xlink="http://www.w3.org/1999/xlink">
	<desc>
			Created with Pixso.
	</desc>
	<defs/>
	<path id="矢量 3" d="M1.71 30L28.27 30C29.41 30 30 29.25 30 27.78L30 2.21C30 0.76 29.41 0 28.27 0L1.71 0C0.58 0 0 0.76 0 2.21L0 27.78C0 29.25 0.58 30 1.71 30ZM2.64 5.38C2.25 5.38 1.99 5.02 1.99 4.58L1.99 2.76C1.99 2.26 2.23 1.91 2.64 1.91L4.18 1.91C4.55 1.91 4.81 2.26 4.81 2.76L4.81 4.58C4.81 5.02 4.55 5.38 4.18 5.38L2.64 5.38ZM25.7 5.38C25.32 5.38 25.05 5.02 25.05 4.58L25.05 2.76C25.05 2.26 25.3 1.91 25.7 1.91L27.24 1.91C27.62 1.91 27.87 2.26 27.87 2.76L27.87 4.58C27.87 5.02 27.62 5.38 27.24 5.38L25.7 5.38ZM7.63 13.76C7.18 13.76 6.93 13.45 6.93 12.88L6.93 3.3C6.93 2.73 7.18 2.4 7.63 2.4L22.24 2.4C22.68 2.4 22.92 2.73 22.92 3.3L22.92 12.88C22.92 13.45 22.68 13.76 22.24 13.76L7.63 13.76ZM2.64 11.06C2.25 11.06 1.99 10.7 1.99 10.26L1.99 8.44C1.99 7.93 2.23 7.59 2.64 7.59L4.18 7.59C4.55 7.59 4.81 7.93 4.81 8.44L4.81 10.26C4.81 10.7 4.55 11.06 4.18 11.06L2.64 11.06ZM25.7 11.06C25.32 11.06 25.05 10.7 25.05 10.26L25.05 8.44C25.05 7.93 25.3 7.59 25.7 7.59L27.24 7.59C27.62 7.59 27.87 7.93 27.87 8.44L27.87 10.26C27.87 10.7 27.62 11.06 27.24 11.06L25.7 11.06ZM2.64 16.74C2.25 16.74 1.99 16.38 1.99 15.94L1.99 14.12C1.99 13.61 2.23 13.27 2.64 13.27L4.18 13.27C4.55 13.27 4.81 13.61 4.81 14.12L4.81 15.94C4.81 16.38 4.55 16.74 4.18 16.74L2.64 16.74ZM25.7 16.74C25.32 16.74 25.05 16.38 25.05 15.94L25.05 14.12C25.05 13.61 25.3 13.27 25.7 13.27L27.24 13.27C27.62 13.27 27.87 13.61 27.87 14.12L27.87 15.94C27.87 16.38 27.62 16.74 27.24 16.74L25.7 16.74ZM7.63 27.6C7.18 27.6 6.93 27.28 6.93 26.72L6.93 17.19C6.93 16.64 7.18 16.31 7.63 16.31L22.24 16.31C22.68 16.31 22.92 16.64 22.92 17.19L22.92 26.72C22.92 27.28 22.68 27.6 22.24 27.6L7.63 27.6ZM2.64 22.41C2.25 22.41 1.99 22.06 1.99 21.62L1.99 19.79C1.99 19.29 2.23 18.95 2.64 18.95L4.18 18.95C4.55 18.95 4.81 19.29 4.81 19.79L4.81 21.62C4.81 22.06 4.55 22.41 4.18 22.41L2.64 22.41ZM25.7 22.41C25.32 22.41 25.05 22.06 25.05 21.62L25.05 19.79C25.05 19.29 25.3 18.95 25.7 18.95L27.24 18.95C27.62 18.95 27.87 19.29 27.87 19.79L27.87 21.62C27.87 22.06 27.62 22.41 27.24 22.41L25.7 22.41ZM2.64 28.09C2.25 28.09 1.99 27.73 1.99 27.29L1.99 25.47C1.99 24.97 2.23 24.63 2.64 24.63L4.18 24.63C4.55 24.63 4.81 24.97 4.81 25.47L4.81 27.29C4.81 27.73 4.55 28.09 4.18 28.09L2.64 28.09ZM25.7 28.09C25.32 28.09 25.05 27.73 25.05 27.29L25.05 25.47C25.05 24.97 25.3 24.63 25.7 24.63L27.24 24.63C27.62 24.63 27.87 24.97 27.87 25.47L27.87 27.29C27.87 27.73 27.62 28.09 27.24 28.09L25.7 28.09Z" fill="#000000" fill-opacity="1.000000" fill-rule="evenodd"/>
</svg>
