<svg width="300.000000" height="338.345825" viewBox="0 0 300 338.346" fill="none" xmlns="http://www.w3.org/2000/svg" xmlns:xlink="http://www.w3.org/1999/xlink">
	<desc>
			Created with Pixso.
	</desc>
	<defs>
		<clipPath id="clip34_58">
			<rect rx="0.000000" width="299.000000" height="337.345856" transform="translate(0.500000 0.500000)" fill="white" fill-opacity="0"/>
		</clipPath>
	</defs>
	<rect rx="0.000000" width="299.000000" height="337.345856" transform="translate(0.500000 0.500000)" fill="#FFFFFF" fill-opacity="0"/>
	<g clip-path="url(#clip34_58)">
		<path d="M247.499 14.0975C269.999 14.0975 287.499 33.8344 287.499 59.2103L287.499 279.135C287.499 304.511 269.999 324.248 247.499 324.248L52.4992 324.248C29.9992 324.248 12.4992 304.511 12.4992 279.135L12.4992 59.2103C12.4992 33.8344 29.9992 14.0975 52.4992 14.0975L247.499 14.0975ZM225 112.782L262.5 112.782L262.5 155.075L225 155.075L225 112.782ZM200.002 155.075L100.002 155.075L100.002 42.2929L200.002 42.2929L200.002 155.075ZM74.9994 155.075L37.4994 155.075L37.4994 112.782L74.9994 112.782L74.9994 155.075ZM37.4994 183.27L74.9994 183.27L74.9994 225.564L37.4994 225.564L37.4994 183.27ZM100.002 183.27L200.002 183.27L200.002 296.052L100.002 296.052L100.002 183.27ZM225 183.27L262.5 183.27L262.5 225.564L225 225.564L225 183.27ZM262.5 59.2102L262.5 84.5861L225 84.5861L225 42.2929L247.5 42.2929C256.25 42.2929 262.5 49.3418 262.5 59.2102ZM52.4994 42.2929L74.9994 42.2929L74.9994 84.5861L37.4994 84.5861L37.4994 59.2102C37.4994 49.3418 43.7494 42.2929 52.4994 42.2929ZM37.4994 279.135L37.4994 253.759L74.9994 253.759L74.9994 296.052L52.4994 296.052C43.7494 296.052 37.4994 289.004 37.4994 279.135ZM247.5 296.052L225 296.052L225 253.759L262.5 253.759L262.5 279.135C262.5 289.004 256.25 296.052 247.5 296.052Z" clip-rule="evenodd" fill="#212529" fill-opacity="1.000000" fill-rule="evenodd"/>
		<mask id="mask34_82" mask-type="alpha" maskUnits="userSpaceOnUse" x="12.499161" y="14.097549" width="275.000122" height="310.150513">
			<path d="M247.499 14.0975C269.999 14.0975 287.499 33.8344 287.499 59.2103L287.499 279.135C287.499 304.511 269.999 324.248 247.499 324.248L52.4992 324.248C29.9992 324.248 12.4992 304.511 12.4992 279.135L12.4992 59.2103C12.4992 33.8344 29.9992 14.0975 52.4992 14.0975L247.499 14.0975ZM225 112.782L262.5 112.782L262.5 155.075L225 155.075L225 112.782ZM200.002 155.075L100.002 155.075L100.002 42.2929L200.002 42.2929L200.002 155.075ZM74.9994 155.075L37.4994 155.075L37.4994 112.782L74.9994 112.782L74.9994 155.075ZM37.4994 183.27L74.9994 183.27L74.9994 225.564L37.4994 225.564L37.4994 183.27ZM100.002 183.27L200.002 183.27L200.002 296.052L100.002 296.052L100.002 183.27ZM225 183.27L262.5 183.27L262.5 225.564L225 225.564L225 183.27ZM262.5 59.2102L262.5 84.5861L225 84.5861L225 42.2929L247.5 42.2929C256.25 42.2929 262.5 49.3418 262.5 59.2102ZM52.4994 42.2929L74.9994 42.2929L74.9994 84.5861L37.4994 84.5861L37.4994 59.2102C37.4994 49.3418 43.7494 42.2929 52.4994 42.2929ZM37.4994 279.135L37.4994 253.759L74.9994 253.759L74.9994 296.052L52.4994 296.052C43.7494 296.052 37.4994 289.004 37.4994 279.135ZM247.5 296.052L225 296.052L225 253.759L262.5 253.759L262.5 279.135C262.5 289.004 256.25 296.052 247.5 296.052Z" clip-rule="evenodd" fill="#282828" fill-opacity="1.000000" fill-rule="evenodd"/>
		</mask>
		<g mask="url(#mask34_82)">
			<rect rx="0.000000" width="299.000183" height="337.346039" transform="translate(0.499924 0.499954)" fill="#FFFFFF" fill-opacity="0"/>
			<path d="M-7.63e-5 -4.58e-5L300 -4.58e-5L300 338.34L-7.63e-5 338.34L-7.63e-5 -4.58e-5Z" fill="#212529" fill-opacity="1.000000" fill-rule="evenodd"/>
		</g>
	</g>
</svg>
